<svg width="64" height="34" viewBox="0 0 64 34" fill="none" xmlns="http://www.w3.org/2000/svg">
<path d="M53.7104 27.2573C52.766 27.2573 51.8702 27.0837 51.023 26.7365C50.1897 26.3893 49.4467 25.8962 48.7939 25.2574L50.1064 23.6741C50.5925 24.1463 51.155 24.5143 51.7938 24.7782C52.4466 25.0282 53.0993 25.1532 53.7521 25.1532C54.5298 25.1532 55.1201 24.9935 55.5229 24.6741C55.9256 24.3546 56.127 23.931 56.127 23.4033C56.127 23.0283 56.0367 22.7297 55.8562 22.5075C55.6756 22.2714 55.4256 22.07 55.1062 21.9033C54.8007 21.7367 54.4396 21.57 54.0229 21.4033L52.148 20.5909C51.7036 20.3964 51.2661 20.1464 50.8355 19.8409C50.4189 19.5215 50.0717 19.1326 49.7939 18.6743C49.53 18.2021 49.3981 17.6326 49.3981 16.966C49.3981 16.2438 49.5925 15.598 49.9814 15.0286C50.3842 14.4453 50.9258 13.9869 51.6063 13.6536C52.3008 13.3064 53.0924 13.1328 53.9813 13.1328C54.8007 13.1328 55.5715 13.2856 56.2937 13.5911C57.0298 13.8828 57.6547 14.2855 58.1686 14.7994L56.8978 16.3827C56.4534 16.0216 55.9881 15.7438 55.502 15.5494C55.0159 15.3411 54.509 15.2369 53.9813 15.2369C53.3424 15.2369 52.8216 15.3827 52.4188 15.6744C52.0299 15.9522 51.8355 16.341 51.8355 16.841C51.8355 17.1882 51.9327 17.4799 52.1272 17.716C52.3355 17.9382 52.6063 18.1326 52.9396 18.2993C53.2868 18.4521 53.641 18.6048 54.0021 18.7576L55.8562 19.5284C56.3978 19.7645 56.877 20.0423 57.2936 20.3617C57.7103 20.6811 58.0297 21.07 58.2519 21.5283C58.488 21.9867 58.6061 22.5491 58.6061 23.2158C58.6061 23.9519 58.4116 24.6254 58.0228 25.2365C57.6339 25.8476 57.0714 26.3407 56.3353 26.7156C55.6131 27.0767 54.7382 27.2573 53.7104 27.2573Z" fill="#0D7C66"/>
<path d="M35.0418 27.0075V13.383H37.9375L40.2708 20.0495C40.4236 20.48 40.5624 20.9105 40.6874 21.3411C40.8124 21.7577 40.9374 22.216 41.0624 22.716H41.1457C41.2707 22.216 41.3888 21.7577 41.4999 21.3411C41.6249 20.9105 41.7568 20.48 41.8957 20.0495L44.229 13.383H47.1039V27.0075H44.8748V20.7994C44.8748 20.3689 44.8887 19.8759 44.9164 19.3203C44.9581 18.7648 45.0067 18.2162 45.0623 17.6745C45.1178 17.119 45.1734 16.6329 45.2289 16.2163H45.1456L44.0623 19.6745L41.8541 25.7576H40.2291L38.0209 19.6745L36.9792 16.2163H36.8959C36.9515 16.6329 37.0001 17.119 37.0417 17.6745C37.0973 18.2162 37.139 18.7648 37.1667 19.3203C37.2084 19.8759 37.2292 20.3689 37.2292 20.7994V27.0075H35.0418Z" fill="#0D7C66"/>
<path d="M29.9958 27.0075V13.383H32.4124V27.0075H29.9958Z" fill="#0D7C66"/>
<path d="M24.0158 28.9335H26.9883V4.29297L23.0771 9.45574H24.0158V28.9335Z" fill="#0D9276" stroke="#0D9276" stroke-width="0.156448"/>
<path d="M19.5571 28.9337H23.1554V10.3164H15.6459V13.9147H19.5571V21.8153V25.4136V27.2201V28.9337Z" fill="#0D9276"/>
<path d="M14.5508 28.932H18.7749V14.6953H11.2654V18.9194H14.5508V28.932Z" fill="#0D9276"/>
<path d="M13.6904 19.7814V28.8553H9.1534V24.3183L6.33734 27.1344V19.7814H13.6904Z" fill="#0D7C66" stroke="#0D7C66" stroke-width="0.156448"/>
<path d="M8.21462 26.666V28.8563H6.02435L8.21462 26.666Z" fill="#0D9276" stroke="#0D9276" stroke-width="0.156448"/>
</svg>
